# Blender v2.93.5 OBJ File: ''
# www.blender.org
mtllib Building 21.mtl
o Cube.002_Cube.005
v -0.026223 0.011252 -0.025649
v -0.026223 0.104583 -0.025649
v -0.026223 0.011252 0.040251
v -0.026223 0.104583 0.040251
v 0.039676 0.011252 -0.025649
v 0.039676 0.104583 -0.025649
v 0.039676 0.011252 0.040251
v 0.039676 0.104583 0.040251
v 0.032802 0.567012 -0.088395
v 0.138424 0.011563 0.017228
v 0.032802 0.567012 -0.140545
v 0.138424 0.011563 -0.246168
v -0.019349 0.567012 -0.088395
v -0.124971 0.011563 0.017228
v -0.019349 0.567012 -0.140545
v -0.124971 0.011563 -0.246168
v 0.154586 0.283134 0.033389
v -0.141133 0.283134 -0.262329
v 0.154586 0.283134 -0.262329
v -0.141133 0.283134 0.033389
v 0.058439 0.149514 -0.010725
v 0.058439 0.220140 -0.010725
v 0.058439 0.149514 0.039143
v 0.058439 0.220140 0.039143
v 0.108307 0.149514 -0.010725
v 0.108307 0.220140 -0.010725
v 0.108307 0.149514 0.039143
v 0.108307 0.220140 0.039143
v -0.092402 0.149514 -0.010725
v -0.092402 0.220140 -0.010725
v -0.092402 0.149514 0.039143
v -0.092402 0.220140 0.039143
v -0.042533 0.149514 -0.010725
v -0.042533 0.220140 -0.010725
v -0.042533 0.149514 0.039143
v -0.042533 0.220140 0.039143
vt 0.375000 0.000000
vt 0.375000 0.250000
vt 0.625000 0.250000
vt 0.625000 0.000000
vt 0.375000 0.500000
vt 0.625000 0.500000
vt 0.375000 0.750000
vt 0.625000 0.750000
vt 0.375000 1.000000
vt 0.625000 1.000000
vt 0.125000 0.500000
vt 0.125000 0.750000
vt 0.875000 0.750000
vt 0.875000 0.500000
vt 0.375000 0.000000
vt 0.375000 0.250000
vt 0.625000 0.250000
vt 0.625000 0.000000
vt 0.375000 0.500000
vt 0.625000 0.500000
vt 0.375000 0.750000
vt 0.625000 0.750000
vt 0.375000 1.000000
vt 0.625000 1.000000
vt 0.125000 0.500000
vt 0.125000 0.750000
vt 0.875000 0.750000
vt 0.875000 0.500000
vt 0.375000 0.000000
vt 0.375000 0.250000
vt 0.625000 0.250000
vt 0.625000 0.000000
vt 0.375000 0.500000
vt 0.625000 0.500000
vt 0.375000 0.750000
vt 0.625000 0.750000
vt 0.375000 1.000000
vt 0.625000 1.000000
vt 0.125000 0.500000
vt 0.125000 0.750000
vt 0.875000 0.750000
vt 0.875000 0.500000
vt 0.625000 0.500000
vt 0.625000 0.750000
vt 0.875000 0.750000
vt 0.875000 0.500000
vt 0.456679 0.750000
vt 0.456679 1.000000
vt 0.625000 1.000000
vt 0.456679 0.000000
vt 0.456679 0.250000
vt 0.625000 0.250000
vt 0.625000 0.000000
vt 0.125000 0.500000
vt 0.125000 0.750000
vt 0.375000 0.750000
vt 0.375000 0.500000
vt 0.456679 0.500000
vt 0.375000 0.250000
vt 0.375000 0.000000
vt 0.375000 1.000000
vn -1.0000 0.0000 0.0000
vn 0.0000 0.0000 1.0000
vn 1.0000 0.0000 0.0000
vn 0.0000 0.0000 -1.0000
vn 0.0000 -1.0000 0.0000
vn 0.0000 1.0000 0.0000
vn 0.0000 0.3943 -0.9190
vn -0.9190 0.3943 0.0000
vn 0.9190 0.3943 0.0000
vn 0.0000 0.3943 0.9190
vn 0.0000 -0.0594 0.9982
vn 0.9982 -0.0594 0.0000
vn -0.9982 -0.0594 0.0000
vn 0.0000 -0.0594 -0.9982
usemtl Material.211
s off
f 1/1/1 3/2/1 4/3/1 2/4/1
f 3/2/2 7/5/2 8/6/2 4/3/2
f 7/5/3 5/7/3 6/8/3 8/6/3
f 5/7/4 1/9/4 2/10/4 6/8/4
f 3/11/5 1/12/5 5/7/5 7/5/5
f 8/6/6 6/8/6 2/13/6 4/14/6
f 21/15/1 23/16/1 24/17/1 22/18/1
f 23/16/2 27/19/2 28/20/2 24/17/2
f 27/19/3 25/21/3 26/22/3 28/20/3
f 25/21/4 21/23/4 22/24/4 26/22/4
f 23/25/5 21/26/5 25/21/5 27/19/5
f 28/20/6 26/22/6 22/27/6 24/28/6
f 29/29/1 31/30/1 32/31/1 30/32/1
f 31/30/2 35/33/2 36/34/2 32/31/2
f 35/33/3 33/35/3 34/36/3 36/34/3
f 33/35/4 29/37/4 30/38/4 34/36/4
f 31/39/5 29/40/5 33/35/5 35/33/5
f 36/34/6 34/36/6 30/41/6 32/42/6
usemtl Material.212
f 9/43/6 11/44/6 15/45/6 13/46/6
f 19/47/7 18/48/7 15/49/7 11/44/7
f 18/50/8 20/51/8 13/52/8 15/53/8
f 14/54/5 16/55/5 12/56/5 10/57/5
f 17/58/9 19/47/9 11/44/9 9/43/9
f 20/51/10 17/58/10 9/43/10 13/52/10
f 14/59/11 10/57/11 17/58/11 20/51/11
f 10/57/12 12/56/12 19/47/12 17/58/12
f 16/60/13 14/59/13 20/51/13 18/50/13
f 12/56/14 16/61/14 18/48/14 19/47/14
