# Blender v2.93.5 OBJ File: ''
# www.blender.org
mtllib Building 24.mtl
o Cube.018_Cube.043
v 0.271452 0.506946 -0.098309
v 0.336916 0.012225 -0.032845
v 0.271452 0.506946 -0.130631
v 0.336916 0.012225 -0.196095
v 0.239130 0.506946 -0.098309
v 0.173666 0.012225 -0.032845
v 0.239130 0.506946 -0.130631
v 0.173666 0.012225 -0.196095
v 0.346933 0.326619 -0.022828
v 0.163650 0.326619 -0.206112
v 0.346933 0.326619 -0.206112
v 0.163650 0.326619 -0.022828
v 0.234869 0.012032 -0.059420
v 0.234869 0.069878 -0.059420
v 0.234869 0.012032 -0.018575
v 0.234869 0.069878 -0.018575
v 0.275713 0.012032 -0.059420
v 0.275713 0.069878 -0.059420
v 0.275713 0.012032 -0.018575
v 0.275713 0.069878 -0.018575
v 0.287343 0.097725 -0.050170
v 0.287343 0.141498 -0.050170
v 0.287343 0.097725 -0.019262
v 0.287343 0.141498 -0.019262
v 0.318251 0.097725 -0.050170
v 0.318251 0.141498 -0.050170
v 0.318251 0.097725 -0.019262
v 0.318251 0.141498 -0.019262
v 0.193853 0.097725 -0.050170
v 0.193853 0.141498 -0.050170
v 0.193853 0.097725 -0.019262
v 0.193853 0.141498 -0.019262
v 0.224761 0.097725 -0.050170
v 0.224761 0.141498 -0.050170
v 0.224761 0.097725 -0.019262
v 0.224761 0.141498 -0.019262
v 0.287343 0.174416 -0.050170
v 0.287343 0.218189 -0.050170
v 0.287343 0.174416 -0.019262
v 0.287343 0.218189 -0.019262
v 0.318251 0.174416 -0.050170
v 0.318251 0.218189 -0.050170
v 0.318251 0.174416 -0.019262
v 0.318251 0.218189 -0.019262
v 0.193853 0.174416 -0.050170
v 0.193853 0.218189 -0.050170
v 0.193853 0.174416 -0.019262
v 0.193853 0.218189 -0.019262
v 0.224761 0.174416 -0.050170
v 0.224761 0.218189 -0.050170
v 0.224761 0.174416 -0.019262
v 0.224761 0.218189 -0.019262
v 0.287343 0.247455 -0.050170
v 0.287343 0.291228 -0.050170
v 0.287343 0.247455 -0.019262
v 0.287343 0.291228 -0.019262
v 0.318251 0.247455 -0.050170
v 0.318251 0.291228 -0.050170
v 0.318251 0.247455 -0.019262
v 0.318251 0.291228 -0.019262
v 0.193853 0.247455 -0.050170
v 0.193853 0.291228 -0.050170
v 0.193853 0.247455 -0.019262
v 0.193853 0.291228 -0.019262
v 0.224761 0.247455 -0.050170
v 0.224761 0.291228 -0.050170
v 0.224761 0.247455 -0.019262
v 0.224761 0.291228 -0.019262
v 0.071140 0.809772 -0.088395
v 0.176763 0.011563 0.017228
v 0.071140 0.809772 -0.140545
v 0.176763 0.011563 -0.246168
v 0.018990 0.809772 -0.088395
v -0.086633 0.011563 0.017228
v 0.018990 0.809772 -0.140545
v -0.086633 0.011563 -0.246168
v 0.192924 0.518823 0.033389
v -0.102795 0.518823 -0.262329
v 0.192924 0.518823 -0.262329
v -0.102795 0.518823 0.033389
v 0.012115 0.011252 -0.025649
v 0.012115 0.104583 -0.025649
v 0.012115 0.011252 0.040251
v 0.012115 0.104583 0.040251
v 0.078015 0.011252 -0.025649
v 0.078015 0.104583 -0.025649
v 0.078015 0.011252 0.040251
v 0.078015 0.104583 0.040251
v 0.096778 0.149514 -0.010725
v 0.096778 0.220140 -0.010725
v 0.096778 0.149514 0.039143
v 0.096778 0.220140 0.039143
v 0.146646 0.149514 -0.010725
v 0.146646 0.220140 -0.010725
v 0.146646 0.149514 0.039143
v 0.146646 0.220140 0.039143
v -0.054063 0.149514 -0.010725
v -0.054063 0.220140 -0.010725
v -0.054063 0.149514 0.039143
v -0.054063 0.220140 0.039143
v -0.004195 0.149514 -0.010725
v -0.004195 0.220140 -0.010725
v -0.004195 0.149514 0.039143
v -0.004195 0.220140 0.039143
v 0.096778 0.273251 -0.010725
v 0.096778 0.343877 -0.010725
v 0.096778 0.273251 0.039143
v 0.096778 0.343877 0.039143
v 0.146646 0.273251 -0.010725
v 0.146646 0.343877 -0.010725
v 0.146646 0.273251 0.039143
v 0.146646 0.343877 0.039143
v -0.054063 0.273251 -0.010725
v -0.054063 0.343877 -0.010725
v -0.054063 0.273251 0.039143
v -0.054063 0.343877 0.039143
v -0.004195 0.273251 -0.010725
v -0.004195 0.343877 -0.010725
v -0.004195 0.273251 0.039143
v -0.004195 0.343877 0.039143
v 0.096778 0.391095 -0.010725
v 0.096778 0.461721 -0.010725
v 0.096778 0.391095 0.039143
v 0.096778 0.461721 0.039143
v 0.146646 0.391095 -0.010725
v 0.146646 0.461721 -0.010725
v 0.146646 0.391095 0.039143
v 0.146646 0.461721 0.039143
v -0.054063 0.391095 -0.010725
v -0.054063 0.461721 -0.010725
v -0.054063 0.391095 0.039143
v -0.054063 0.461721 0.039143
v -0.004195 0.391095 -0.010725
v -0.004195 0.461721 -0.010725
v -0.004195 0.391095 0.039143
v -0.004195 0.461721 0.039143
v -0.149696 0.506946 -0.098309
v -0.084232 0.012225 -0.032845
v -0.149696 0.506946 -0.130631
v -0.084232 0.012225 -0.196095
v -0.182018 0.506946 -0.098309
v -0.247482 0.012225 -0.032845
v -0.182018 0.506946 -0.130631
v -0.247482 0.012225 -0.196095
v -0.074215 0.326619 -0.022828
v -0.257498 0.326619 -0.206112
v -0.074215 0.326619 -0.206112
v -0.257498 0.326619 -0.022828
v -0.186279 0.012032 -0.059420
v -0.186279 0.069878 -0.059420
v -0.186279 0.012032 -0.018575
v -0.186279 0.069878 -0.018575
v -0.145435 0.012032 -0.059420
v -0.145435 0.069878 -0.059420
v -0.145435 0.012032 -0.018575
v -0.145435 0.069878 -0.018575
v -0.133805 0.097725 -0.050170
v -0.133805 0.141498 -0.050170
v -0.133805 0.097725 -0.019262
v -0.133805 0.141498 -0.019262
v -0.102897 0.097725 -0.050170
v -0.102897 0.141498 -0.050170
v -0.102897 0.097725 -0.019262
v -0.102897 0.141498 -0.019262
v -0.227295 0.097725 -0.050170
v -0.227295 0.141498 -0.050170
v -0.227295 0.097725 -0.019262
v -0.227295 0.141498 -0.019262
v -0.196387 0.097725 -0.050170
v -0.196387 0.141498 -0.050170
v -0.196387 0.097725 -0.019262
v -0.196387 0.141498 -0.019262
v -0.133805 0.174416 -0.050170
v -0.133805 0.218189 -0.050170
v -0.133805 0.174416 -0.019262
v -0.133805 0.218189 -0.019262
v -0.102897 0.174416 -0.050170
v -0.102897 0.218189 -0.050170
v -0.102897 0.174416 -0.019262
v -0.102897 0.218189 -0.019262
v -0.227295 0.174416 -0.050170
v -0.227295 0.218189 -0.050170
v -0.227295 0.174416 -0.019262
v -0.227295 0.218189 -0.019262
v -0.196387 0.174416 -0.050170
v -0.196387 0.218189 -0.050170
v -0.196387 0.174416 -0.019262
v -0.196387 0.218189 -0.019262
v -0.133805 0.247455 -0.050170
v -0.133805 0.291228 -0.050170
v -0.133805 0.247455 -0.019262
v -0.133805 0.291228 -0.019262
v -0.102897 0.247455 -0.050170
v -0.102897 0.291228 -0.050170
v -0.102897 0.247455 -0.019262
v -0.102897 0.291228 -0.019262
v -0.227295 0.247455 -0.050170
v -0.227295 0.291228 -0.050170
v -0.227295 0.247455 -0.019262
v -0.227295 0.291228 -0.019262
v -0.196387 0.247455 -0.050170
v -0.196387 0.291228 -0.050170
v -0.196387 0.247455 -0.019262
v -0.196387 0.291228 -0.019262
vt 0.625000 0.500000
vt 0.625000 0.750000
vt 0.875000 0.750000
vt 0.875000 0.500000
vt 0.456679 0.750000
vt 0.456679 1.000000
vt 0.625000 1.000000
vt 0.456679 0.000000
vt 0.456679 0.250000
vt 0.625000 0.250000
vt 0.625000 0.000000
vt 0.125000 0.500000
vt 0.125000 0.750000
vt 0.375000 0.750000
vt 0.375000 0.500000
vt 0.456679 0.500000
vt 0.375000 0.250000
vt 0.375000 0.000000
vt 0.375000 1.000000
vt 0.625000 0.500000
vt 0.625000 0.750000
vt 0.875000 0.750000
vt 0.875000 0.500000
vt 0.456679 0.750000
vt 0.456679 1.000000
vt 0.625000 1.000000
vt 0.456679 0.000000
vt 0.456679 0.250000
vt 0.625000 0.250000
vt 0.625000 0.000000
vt 0.125000 0.500000
vt 0.125000 0.750000
vt 0.375000 0.750000
vt 0.375000 0.500000
vt 0.456679 0.500000
vt 0.375000 0.250000
vt 0.375000 0.000000
vt 0.375000 1.000000
vt 0.625000 0.500000
vt 0.625000 0.750000
vt 0.875000 0.750000
vt 0.875000 0.500000
vt 0.456679 0.750000
vt 0.456679 1.000000
vt 0.625000 1.000000
vt 0.456679 0.000000
vt 0.456679 0.250000
vt 0.625000 0.250000
vt 0.625000 0.000000
vt 0.125000 0.500000
vt 0.125000 0.750000
vt 0.375000 0.750000
vt 0.375000 0.500000
vt 0.456679 0.500000
vt 0.375000 0.250000
vt 0.375000 0.000000
vt 0.375000 1.000000
vt 0.375000 0.000000
vt 0.375000 0.250000
vt 0.625000 0.250000
vt 0.625000 0.000000
vt 0.375000 0.500000
vt 0.625000 0.500000
vt 0.375000 0.750000
vt 0.625000 0.750000
vt 0.375000 1.000000
vt 0.625000 1.000000
vt 0.125000 0.500000
vt 0.125000 0.750000
vt 0.875000 0.750000
vt 0.875000 0.500000
vt 0.375000 0.000000
vt 0.375000 0.250000
vt 0.625000 0.250000
vt 0.625000 0.000000
vt 0.375000 0.500000
vt 0.625000 0.500000
vt 0.375000 0.750000
vt 0.625000 0.750000
vt 0.375000 1.000000
vt 0.625000 1.000000
vt 0.125000 0.500000
vt 0.125000 0.750000
vt 0.875000 0.750000
vt 0.875000 0.500000
vt 0.375000 0.000000
vt 0.375000 0.250000
vt 0.625000 0.250000
vt 0.625000 0.000000
vt 0.375000 0.500000
vt 0.625000 0.500000
vt 0.375000 0.750000
vt 0.625000 0.750000
vt 0.375000 1.000000
vt 0.625000 1.000000
vt 0.125000 0.500000
vt 0.125000 0.750000
vt 0.875000 0.750000
vt 0.875000 0.500000
vt 0.375000 0.000000
vt 0.375000 0.250000
vt 0.625000 0.250000
vt 0.625000 0.000000
vt 0.375000 0.500000
vt 0.625000 0.500000
vt 0.375000 0.750000
vt 0.625000 0.750000
vt 0.375000 1.000000
vt 0.625000 1.000000
vt 0.125000 0.500000
vt 0.125000 0.750000
vt 0.875000 0.750000
vt 0.875000 0.500000
vt 0.375000 0.000000
vt 0.375000 0.250000
vt 0.625000 0.250000
vt 0.625000 0.000000
vt 0.375000 0.500000
vt 0.625000 0.500000
vt 0.375000 0.750000
vt 0.625000 0.750000
vt 0.375000 1.000000
vt 0.625000 1.000000
vt 0.125000 0.500000
vt 0.125000 0.750000
vt 0.875000 0.750000
vt 0.875000 0.500000
vt 0.375000 0.000000
vt 0.375000 0.250000
vt 0.625000 0.250000
vt 0.625000 0.000000
vt 0.375000 0.500000
vt 0.625000 0.500000
vt 0.375000 0.750000
vt 0.625000 0.750000
vt 0.375000 1.000000
vt 0.625000 1.000000
vt 0.125000 0.500000
vt 0.125000 0.750000
vt 0.875000 0.750000
vt 0.875000 0.500000
vt 0.375000 0.000000
vt 0.375000 0.250000
vt 0.625000 0.250000
vt 0.625000 0.000000
vt 0.375000 0.500000
vt 0.625000 0.500000
vt 0.375000 0.750000
vt 0.625000 0.750000
vt 0.375000 1.000000
vt 0.625000 1.000000
vt 0.125000 0.500000
vt 0.125000 0.750000
vt 0.875000 0.750000
vt 0.875000 0.500000
vt 0.375000 0.000000
vt 0.375000 0.250000
vt 0.625000 0.250000
vt 0.625000 0.000000
vt 0.375000 0.500000
vt 0.625000 0.500000
vt 0.375000 0.750000
vt 0.625000 0.750000
vt 0.375000 1.000000
vt 0.625000 1.000000
vt 0.125000 0.500000
vt 0.125000 0.750000
vt 0.875000 0.750000
vt 0.875000 0.500000
vt 0.375000 0.000000
vt 0.375000 0.250000
vt 0.625000 0.250000
vt 0.625000 0.000000
vt 0.375000 0.500000
vt 0.625000 0.500000
vt 0.375000 0.750000
vt 0.625000 0.750000
vt 0.375000 1.000000
vt 0.625000 1.000000
vt 0.125000 0.500000
vt 0.125000 0.750000
vt 0.875000 0.750000
vt 0.875000 0.500000
vt 0.375000 0.000000
vt 0.375000 0.250000
vt 0.625000 0.250000
vt 0.625000 0.000000
vt 0.375000 0.500000
vt 0.625000 0.500000
vt 0.375000 0.750000
vt 0.625000 0.750000
vt 0.375000 1.000000
vt 0.625000 1.000000
vt 0.125000 0.500000
vt 0.125000 0.750000
vt 0.875000 0.750000
vt 0.875000 0.500000
vt 0.375000 0.000000
vt 0.375000 0.250000
vt 0.625000 0.250000
vt 0.625000 0.000000
vt 0.375000 0.500000
vt 0.625000 0.500000
vt 0.375000 0.750000
vt 0.625000 0.750000
vt 0.375000 1.000000
vt 0.625000 1.000000
vt 0.125000 0.500000
vt 0.125000 0.750000
vt 0.875000 0.750000
vt 0.875000 0.500000
vt 0.375000 0.000000
vt 0.375000 0.250000
vt 0.625000 0.250000
vt 0.625000 0.000000
vt 0.375000 0.500000
vt 0.625000 0.500000
vt 0.375000 0.750000
vt 0.625000 0.750000
vt 0.375000 1.000000
vt 0.625000 1.000000
vt 0.125000 0.500000
vt 0.125000 0.750000
vt 0.875000 0.750000
vt 0.875000 0.500000
vt 0.375000 0.000000
vt 0.375000 0.250000
vt 0.625000 0.250000
vt 0.625000 0.000000
vt 0.375000 0.500000
vt 0.625000 0.500000
vt 0.375000 0.750000
vt 0.625000 0.750000
vt 0.375000 1.000000
vt 0.625000 1.000000
vt 0.125000 0.500000
vt 0.125000 0.750000
vt 0.875000 0.750000
vt 0.875000 0.500000
vt 0.375000 0.000000
vt 0.375000 0.250000
vt 0.625000 0.250000
vt 0.625000 0.000000
vt 0.375000 0.500000
vt 0.625000 0.500000
vt 0.375000 0.750000
vt 0.625000 0.750000
vt 0.375000 1.000000
vt 0.625000 1.000000
vt 0.125000 0.500000
vt 0.125000 0.750000
vt 0.875000 0.750000
vt 0.875000 0.500000
vt 0.375000 0.000000
vt 0.375000 0.250000
vt 0.625000 0.250000
vt 0.625000 0.000000
vt 0.375000 0.500000
vt 0.625000 0.500000
vt 0.375000 0.750000
vt 0.625000 0.750000
vt 0.375000 1.000000
vt 0.625000 1.000000
vt 0.125000 0.500000
vt 0.125000 0.750000
vt 0.875000 0.750000
vt 0.875000 0.500000
vt 0.375000 0.000000
vt 0.375000 0.250000
vt 0.625000 0.250000
vt 0.625000 0.000000
vt 0.375000 0.500000
vt 0.625000 0.500000
vt 0.375000 0.750000
vt 0.625000 0.750000
vt 0.375000 1.000000
vt 0.625000 1.000000
vt 0.125000 0.500000
vt 0.125000 0.750000
vt 0.875000 0.750000
vt 0.875000 0.500000
vt 0.375000 0.000000
vt 0.375000 0.250000
vt 0.625000 0.250000
vt 0.625000 0.000000
vt 0.375000 0.500000
vt 0.625000 0.500000
vt 0.375000 0.750000
vt 0.625000 0.750000
vt 0.375000 1.000000
vt 0.625000 1.000000
vt 0.125000 0.500000
vt 0.125000 0.750000
vt 0.875000 0.750000
vt 0.875000 0.500000
vt 0.375000 0.000000
vt 0.375000 0.250000
vt 0.625000 0.250000
vt 0.625000 0.000000
vt 0.375000 0.500000
vt 0.625000 0.500000
vt 0.375000 0.750000
vt 0.625000 0.750000
vt 0.375000 1.000000
vt 0.625000 1.000000
vt 0.125000 0.500000
vt 0.125000 0.750000
vt 0.875000 0.750000
vt 0.875000 0.500000
vt 0.375000 0.000000
vt 0.375000 0.250000
vt 0.625000 0.250000
vt 0.625000 0.000000
vt 0.375000 0.500000
vt 0.625000 0.500000
vt 0.375000 0.750000
vt 0.625000 0.750000
vt 0.375000 1.000000
vt 0.625000 1.000000
vt 0.125000 0.500000
vt 0.125000 0.750000
vt 0.875000 0.750000
vt 0.875000 0.500000
vt 0.375000 0.000000
vt 0.375000 0.250000
vt 0.625000 0.250000
vt 0.625000 0.000000
vt 0.375000 0.500000
vt 0.625000 0.500000
vt 0.375000 0.750000
vt 0.625000 0.750000
vt 0.375000 1.000000
vt 0.625000 1.000000
vt 0.125000 0.500000
vt 0.125000 0.750000
vt 0.875000 0.750000
vt 0.875000 0.500000
vt 0.375000 0.000000
vt 0.375000 0.250000
vt 0.625000 0.250000
vt 0.625000 0.000000
vt 0.375000 0.500000
vt 0.625000 0.500000
vt 0.375000 0.750000
vt 0.625000 0.750000
vt 0.375000 1.000000
vt 0.625000 1.000000
vt 0.125000 0.500000
vt 0.125000 0.750000
vt 0.875000 0.750000
vt 0.875000 0.500000
vn 0.0000 1.0000 0.0000
vn 0.0000 0.3861 -0.9225
vn -0.9225 0.3861 0.0000
vn 0.0000 -1.0000 0.0000
vn 0.9225 0.3861 0.0000
vn 0.0000 0.3861 0.9225
vn 0.0000 -0.0318 0.9995
vn 0.9995 -0.0318 0.0000
vn -0.9995 -0.0318 0.0000
vn 0.0000 -0.0318 -0.9995
vn -1.0000 0.0000 0.0000
vn 0.0000 0.0000 1.0000
vn 1.0000 0.0000 0.0000
vn 0.0000 0.0000 -1.0000
usemtl Material.220
s off
f 1/1/1 3/2/1 7/3/1 5/4/1
f 11/5/2 10/6/2 7/7/2 3/2/2
f 10/8/3 12/9/3 5/10/3 7/11/3
f 6/12/4 8/13/4 4/14/4 2/15/4
f 9/16/5 11/5/5 3/2/5 1/1/5
f 12/9/6 9/16/6 1/1/6 5/10/6
f 6/17/7 2/15/7 9/16/7 12/9/7
f 2/15/8 4/14/8 11/5/8 9/16/8
f 8/18/9 6/17/9 12/9/9 10/8/9
f 4/14/10 8/19/10 10/6/10 11/5/10
f 69/20/1 71/21/1 75/22/1 73/23/1
f 79/24/2 78/25/2 75/26/2 71/21/2
f 78/27/3 80/28/3 73/29/3 75/30/3
f 74/31/4 76/32/4 72/33/4 70/34/4
f 77/35/5 79/24/5 71/21/5 69/20/5
f 80/28/6 77/35/6 69/20/6 73/29/6
f 74/36/7 70/34/7 77/35/7 80/28/7
f 70/34/8 72/33/8 79/24/8 77/35/8
f 76/37/9 74/36/9 80/28/9 78/27/9
f 72/33/10 76/38/10 78/25/10 79/24/10
f 137/39/1 139/40/1 143/41/1 141/42/1
f 147/43/2 146/44/2 143/45/2 139/40/2
f 146/46/3 148/47/3 141/48/3 143/49/3
f 142/50/4 144/51/4 140/52/4 138/53/4
f 145/54/5 147/43/5 139/40/5 137/39/5
f 148/47/6 145/54/6 137/39/6 141/48/6
f 142/55/7 138/53/7 145/54/7 148/47/7
f 138/53/8 140/52/8 147/43/8 145/54/8
f 144/56/9 142/55/9 148/47/9 146/46/9
f 140/52/10 144/57/10 146/44/10 147/43/10
usemtl Material.219
f 13/58/11 15/59/11 16/60/11 14/61/11
f 15/59/12 19/62/12 20/63/12 16/60/12
f 19/62/13 17/64/13 18/65/13 20/63/13
f 17/64/14 13/66/14 14/67/14 18/65/14
f 15/68/4 13/69/4 17/64/4 19/62/4
f 20/63/1 18/65/1 14/70/1 16/71/1
f 21/72/11 23/73/11 24/74/11 22/75/11
f 23/73/12 27/76/12 28/77/12 24/74/12
f 27/76/13 25/78/13 26/79/13 28/77/13
f 25/78/14 21/80/14 22/81/14 26/79/14
f 23/82/4 21/83/4 25/78/4 27/76/4
f 28/77/1 26/79/1 22/84/1 24/85/1
f 29/86/11 31/87/11 32/88/11 30/89/11
f 31/87/12 35/90/12 36/91/12 32/88/12
f 35/90/13 33/92/13 34/93/13 36/91/13
f 33/92/14 29/94/14 30/95/14 34/93/14
f 31/96/4 29/97/4 33/92/4 35/90/4
f 36/91/1 34/93/1 30/98/1 32/99/1
f 37/100/11 39/101/11 40/102/11 38/103/11
f 39/101/12 43/104/12 44/105/12 40/102/12
f 43/104/13 41/106/13 42/107/13 44/105/13
f 41/106/14 37/108/14 38/109/14 42/107/14
f 39/110/4 37/111/4 41/106/4 43/104/4
f 44/105/1 42/107/1 38/112/1 40/113/1
f 45/114/11 47/115/11 48/116/11 46/117/11
f 47/115/12 51/118/12 52/119/12 48/116/12
f 51/118/13 49/120/13 50/121/13 52/119/13
f 49/120/14 45/122/14 46/123/14 50/121/14
f 47/124/4 45/125/4 49/120/4 51/118/4
f 52/119/1 50/121/1 46/126/1 48/127/1
f 53/128/11 55/129/11 56/130/11 54/131/11
f 55/129/12 59/132/12 60/133/12 56/130/12
f 59/132/13 57/134/13 58/135/13 60/133/13
f 57/134/14 53/136/14 54/137/14 58/135/14
f 55/138/4 53/139/4 57/134/4 59/132/4
f 60/133/1 58/135/1 54/140/1 56/141/1
f 61/142/11 63/143/11 64/144/11 62/145/11
f 63/143/12 67/146/12 68/147/12 64/144/12
f 67/146/13 65/148/13 66/149/13 68/147/13
f 65/148/14 61/150/14 62/151/14 66/149/14
f 63/152/4 61/153/4 65/148/4 67/146/4
f 68/147/1 66/149/1 62/154/1 64/155/1
f 81/156/11 83/157/11 84/158/11 82/159/11
f 83/157/12 87/160/12 88/161/12 84/158/12
f 87/160/13 85/162/13 86/163/13 88/161/13
f 85/162/14 81/164/14 82/165/14 86/163/14
f 83/166/4 81/167/4 85/162/4 87/160/4
f 88/161/1 86/163/1 82/168/1 84/169/1
f 89/170/11 91/171/11 92/172/11 90/173/11
f 91/171/12 95/174/12 96/175/12 92/172/12
f 95/174/13 93/176/13 94/177/13 96/175/13
f 93/176/14 89/178/14 90/179/14 94/177/14
f 91/180/4 89/181/4 93/176/4 95/174/4
f 96/175/1 94/177/1 90/182/1 92/183/1
f 97/184/11 99/185/11 100/186/11 98/187/11
f 99/185/12 103/188/12 104/189/12 100/186/12
f 103/188/13 101/190/13 102/191/13 104/189/13
f 101/190/14 97/192/14 98/193/14 102/191/14
f 99/194/4 97/195/4 101/190/4 103/188/4
f 104/189/1 102/191/1 98/196/1 100/197/1
f 105/198/11 107/199/11 108/200/11 106/201/11
f 107/199/12 111/202/12 112/203/12 108/200/12
f 111/202/13 109/204/13 110/205/13 112/203/13
f 109/204/14 105/206/14 106/207/14 110/205/14
f 107/208/4 105/209/4 109/204/4 111/202/4
f 112/203/1 110/205/1 106/210/1 108/211/1
f 113/212/11 115/213/11 116/214/11 114/215/11
f 115/213/12 119/216/12 120/217/12 116/214/12
f 119/216/13 117/218/13 118/219/13 120/217/13
f 117/218/14 113/220/14 114/221/14 118/219/14
f 115/222/4 113/223/4 117/218/4 119/216/4
f 120/217/1 118/219/1 114/224/1 116/225/1
f 121/226/11 123/227/11 124/228/11 122/229/11
f 123/227/12 127/230/12 128/231/12 124/228/12
f 127/230/13 125/232/13 126/233/13 128/231/13
f 125/232/14 121/234/14 122/235/14 126/233/14
f 123/236/4 121/237/4 125/232/4 127/230/4
f 128/231/1 126/233/1 122/238/1 124/239/1
f 129/240/11 131/241/11 132/242/11 130/243/11
f 131/241/12 135/244/12 136/245/12 132/242/12
f 135/244/13 133/246/13 134/247/13 136/245/13
f 133/246/14 129/248/14 130/249/14 134/247/14
f 131/250/4 129/251/4 133/246/4 135/244/4
f 136/245/1 134/247/1 130/252/1 132/253/1
f 149/254/11 151/255/11 152/256/11 150/257/11
f 151/255/12 155/258/12 156/259/12 152/256/12
f 155/258/13 153/260/13 154/261/13 156/259/13
f 153/260/14 149/262/14 150/263/14 154/261/14
f 151/264/4 149/265/4 153/260/4 155/258/4
f 156/259/1 154/261/1 150/266/1 152/267/1
f 157/268/11 159/269/11 160/270/11 158/271/11
f 159/269/12 163/272/12 164/273/12 160/270/12
f 163/272/13 161/274/13 162/275/13 164/273/13
f 161/274/14 157/276/14 158/277/14 162/275/14
f 159/278/4 157/279/4 161/274/4 163/272/4
f 164/273/1 162/275/1 158/280/1 160/281/1
f 165/282/11 167/283/11 168/284/11 166/285/11
f 167/283/12 171/286/12 172/287/12 168/284/12
f 171/286/13 169/288/13 170/289/13 172/287/13
f 169/288/14 165/290/14 166/291/14 170/289/14
f 167/292/4 165/293/4 169/288/4 171/286/4
f 172/287/1 170/289/1 166/294/1 168/295/1
f 173/296/11 175/297/11 176/298/11 174/299/11
f 175/297/12 179/300/12 180/301/12 176/298/12
f 179/300/13 177/302/13 178/303/13 180/301/13
f 177/302/14 173/304/14 174/305/14 178/303/14
f 175/306/4 173/307/4 177/302/4 179/300/4
f 180/301/1 178/303/1 174/308/1 176/309/1
f 181/310/11 183/311/11 184/312/11 182/313/11
f 183/311/12 187/314/12 188/315/12 184/312/12
f 187/314/13 185/316/13 186/317/13 188/315/13
f 185/316/14 181/318/14 182/319/14 186/317/14
f 183/320/4 181/321/4 185/316/4 187/314/4
f 188/315/1 186/317/1 182/322/1 184/323/1
f 189/324/11 191/325/11 192/326/11 190/327/11
f 191/325/12 195/328/12 196/329/12 192/326/12
f 195/328/13 193/330/13 194/331/13 196/329/13
f 193/330/14 189/332/14 190/333/14 194/331/14
f 191/334/4 189/335/4 193/330/4 195/328/4
f 196/329/1 194/331/1 190/336/1 192/337/1
f 197/338/11 199/339/11 200/340/11 198/341/11
f 199/339/12 203/342/12 204/343/12 200/340/12
f 203/342/13 201/344/13 202/345/13 204/343/13
f 201/344/14 197/346/14 198/347/14 202/345/14
f 199/348/4 197/349/4 201/344/4 203/342/4
f 204/343/1 202/345/1 198/350/1 200/351/1
